<svg width="24" height="24" viewBox="0 0 35 35" fill="none" xmlns="http://www.w3.org/2000/svg">
<path d="M28.1042 31.6057C28.6587 31.6057 29.1904 31.3854 29.5824 30.9934C29.9745 30.6013 30.1948 30.0696 30.1948 29.5151C30.1948 28.9607 29.9745 28.4289 29.5824 28.0369C29.1904 27.6448 28.6587 27.4246 28.1042 27.4246C27.5498 27.4246 27.018 27.6448 26.626 28.0369C26.2339 28.4289 26.0137 28.9607 26.0137 29.5151C26.0137 30.0696 26.2339 30.6013 26.626 30.9934C27.018 31.3854 27.5498 31.6057 28.1042 31.6057ZM14.1672 31.6057C14.7217 31.6057 15.2534 31.3854 15.6455 30.9934C16.0375 30.6013 16.2578 30.0696 16.2578 29.5151C16.2578 28.9607 16.0375 28.4289 15.6455 28.0369C15.2534 27.6448 14.7217 27.4246 14.1672 27.4246C13.6128 27.4246 13.081 27.6448 12.689 28.0369C12.2969 28.4289 12.0767 28.9607 12.0767 29.5151C12.0767 30.0696 12.2969 30.6013 12.689 30.9934C13.081 31.3854 13.6128 31.6057 14.1672 31.6057Z" fill="black" stroke="black" stroke-width="1.5204" stroke-linecap="round" stroke-linejoin="round"/>
<path d="M7.89545 6.51884H31.5883L28.8009 21.8495M7.89545 6.51884L10.6829 21.8495H28.8009M7.89545 6.51884C7.66271 5.58925 6.50175 3.73145 3.71436 3.73145M28.8009 21.8495H8.216C5.72964 21.8495 4.41121 22.938 4.41121 24.6369C4.41121 26.3359 5.72964 27.4243 8.216 27.4243H28.1041" stroke="black" stroke-width="1.5204" stroke-linecap="round" stroke-linejoin="round"/>
</svg>
