<svg width="20"   height="20" viewBox="0 0 35 35" fill="none" xmlns="http://www.w3.org/2000/svg" >
<path d="M24.0622 5.50513C21.3184 5.50513 18.9325 6.74247 17.5293 8.81603C16.126 6.74247 13.7401 5.50513 10.9963 5.50513C8.91786 5.50755 6.92524 6.33428 5.45557 7.80395C3.98589 9.27363 3.15916 11.2662 3.15674 13.3447C3.15674 17.1599 5.53474 21.1307 10.2254 25.1445C12.3748 26.9761 14.6966 28.5951 17.1582 29.9789C17.2723 30.0402 17.3998 30.0723 17.5293 30.0723C17.6588 30.0723 17.7863 30.0402 17.9003 29.9789C20.3619 28.5951 22.6837 26.9761 24.8331 25.1445C29.5238 21.1307 31.9018 17.1599 31.9018 13.3447C31.8994 11.2662 31.0726 9.27363 29.603 7.80395C28.1333 6.33428 26.1407 5.50755 24.0622 5.50513ZM17.5293 28.3849C15.3851 27.1475 4.72465 20.625 4.72465 13.3447C4.72638 11.6819 5.3877 10.0877 6.56348 8.91187C7.73927 7.73608 9.33348 7.07477 10.9963 7.07304C13.6461 7.07304 15.8712 8.48808 16.8041 10.7668C16.8632 10.9106 16.9636 11.0335 17.0928 11.1201C17.2219 11.2066 17.3738 11.2529 17.5293 11.2529C17.6847 11.2529 17.8366 11.2066 17.9658 11.1201C18.0949 11.0335 18.1954 10.9106 18.2544 10.7668C19.1873 8.48808 21.4125 7.07304 24.0622 7.07304C25.725 7.07477 27.3193 7.73608 28.495 8.91187C29.6708 10.0877 30.3321 11.6819 30.3339 13.3447C30.3339 20.625 19.6734 27.1475 17.5293 28.3849Z" fill="black"/>
</svg>
