<svg width="24" height="24" viewBox="0 0 36 36" fill="none" xmlns="http://www.w3.org/2000/svg">
<path d="M6.13306 26.411C6.13306 24.8652 6.7471 23.3828 7.8401 22.2898C8.9331 21.1968 10.4155 20.5828 11.9613 20.5828H23.6177C25.1634 20.5828 26.6458 21.1968 27.7388 22.2898C28.8318 23.3828 29.4458 24.8652 29.4458 26.411C29.4458 27.1838 29.1388 27.925 28.5923 28.4715C28.0458 29.018 27.3046 29.3251 26.5317 29.3251H9.04716C8.27429 29.3251 7.53308 29.018 6.98658 28.4715C6.44008 27.925 6.13306 27.1838 6.13306 26.411Z" stroke="black" stroke-width="1.5204" stroke-linejoin="round"/>
<path d="M17.7894 14.7545C20.2035 14.7545 22.1605 12.7975 22.1605 10.3834C22.1605 7.96924 20.2035 6.01221 17.7894 6.01221C15.3752 6.01221 13.4182 7.96924 13.4182 10.3834C13.4182 12.7975 15.3752 14.7545 17.7894 14.7545Z" stroke="black" stroke-width="1.5204"/>
</svg>
