<svg width="24" height="24" viewBox="0 0 48 49" fill="none" xmlns="http://www.w3.org/2000/svg">
<path fill-rule="evenodd" clip-rule="evenodd" d="M22.1965 12.3803C19.5844 12.3803 17.0792 13.418 15.2322 15.2651C13.3851 17.1121 12.3475 19.6173 12.3475 22.2294C12.3475 24.8415 13.3851 27.3467 15.2322 29.1937C17.0792 31.0408 19.5844 32.0784 22.1965 32.0784C24.8087 32.0784 27.3138 31.0408 29.1609 29.1937C31.0079 27.3467 32.0456 24.8415 32.0456 22.2294C32.0456 19.6173 31.0079 17.1121 29.1609 15.2651C27.3138 13.418 24.8087 12.3803 22.1965 12.3803ZM9.39276 22.2294C9.39276 18.8336 10.7417 15.5769 13.1429 13.1758C15.5441 10.7746 18.8008 9.42562 22.1965 9.42562C25.5923 9.42562 28.849 10.7746 31.2501 13.1758C33.6513 15.5769 35.0003 18.8336 35.0003 22.2294C35.0003 25.6252 33.6513 28.8818 31.2501 31.283C28.849 33.6842 25.5923 35.0331 22.1965 35.0331C18.8008 35.0331 15.5441 33.6842 13.1429 31.283C10.7417 28.8818 9.39276 25.6252 9.39276 22.2294Z" fill="#141313" fill-opacity="0.6"/>
<path fill-rule="evenodd" clip-rule="evenodd" d="M29.1738 29.2616C29.4508 28.9849 29.8263 28.8295 30.2178 28.8295C30.6093 28.8295 30.9848 28.9849 31.2618 29.2616L39.1411 37.1408C39.2862 37.2761 39.4026 37.4392 39.4834 37.6204C39.5641 37.8016 39.6075 37.9973 39.611 38.1956C39.6145 38.394 39.578 38.591 39.5037 38.775C39.4294 38.9589 39.3188 39.126 39.1786 39.2663C39.0383 39.4066 38.8712 39.5172 38.6872 39.5915C38.5032 39.6658 38.3062 39.7023 38.1078 39.6988C37.9095 39.6953 37.7138 39.6519 37.5326 39.5711C37.3514 39.4904 37.1883 39.374 37.0531 39.2288L29.1738 31.3496C28.8972 31.0726 28.7418 30.6971 28.7418 30.3056C28.7418 29.9141 28.8972 29.5386 29.1738 29.2616Z" fill="#141313" fill-opacity="0.6"/>
</svg>
